<svg width="297" height="175" xmlns="http://www.w3.org/2000/svg" xmlns:xlink="http://www.w3.org/1999/xlink" overflow="hidden"><defs><clipPath id="clip0"><path d="M484 275 781 275 781 450 484 450Z" fill-rule="evenodd" clip-rule="evenodd"/></clipPath></defs><g clip-path="url(#clip0)" transform="translate(-484 -275)"><path d="M657.653 357.956C650.92 358.492 644.255 359.681 637.753 361.506 638.381 398.439 608.95 428.887 572.018 429.515 535.085 430.143 504.637 400.712 504.009 363.78 503.381 326.847 532.812 296.398 569.744 295.771 589.871 295.428 609.082 304.17 622.046 319.569 628.817 317.011 635.848 315.203 643.014 314.177 616.335 274.602 562.626 264.147 523.051 290.825 483.476 317.504 473.021 371.213 499.699 410.788 526.378 450.364 580.087 460.818 619.662 434.14 630.512 426.826 639.559 417.143 646.122 405.823 664.705 373.786 657.653 357.956 657.653 357.956Z" fill="#FFFFFF" fill-rule="evenodd"/><path d="M607.267 366.999C613.999 366.464 620.664 365.275 627.166 363.449 626.538 326.517 655.969 296.068 692.902 295.44 729.834 294.813 760.283 324.243 760.911 361.176 761.539 398.108 732.108 428.557 695.175 429.185 675.048 429.527 655.838 420.786 642.874 405.386 636.102 407.945 629.071 409.753 621.906 410.778 648.584 450.354 702.294 460.808 741.869 434.13 781.444 407.451 791.898 353.742 765.22 314.167 738.541 274.592 684.832 264.137 645.257 290.816 634.407 298.13 625.36 307.812 618.798 319.133 600.214 351.17 607.267 366.999 607.267 366.999Z" fill="#FFFFFF" fill-rule="evenodd"/></g></svg>